#Comment line ignore any data following # character 
#Hierarchical Translation and Rotation (.htr) file 
[Header]	
#Header keywords are followed by a single value 
FileType HTR		#Single word string
DataType HTRS		#Translation followed by rotation and scale data
FileVersion 1		#integer
NumSegments 64		#integer
NumFrames 2		#integer
DataFrameRate 30		#integer, data frame rate in this file
EulerRotationOrder ZYX
CalibrationUnits mm
RotationUnits Degrees
GlobalAxisofGravity Y
BoneLengthAxis Y
ScaleFactor 1.00
[SegmentNames&Hierarchy]
#CHILD	PARENT
Pinger_Root GLOBAL
Pelvis Pinger_Root
L_Hip Pelvis
R_Hip Pelvis
Rear_Leg01 Pelvis
Spine1 Pelvis
L_Leg01 L_Hip
L_Leg02 L_Leg01
L_Leg03 L_Leg02
L_Foot L_Leg03
L_Toe1_01 L_Foot
L_Toe2_01 L_Foot
L_Toe3_01 L_Foot
planeAlignerLeft L_Foot
L_Toe1_02 L_Toe1_01
L_Toe1_03 L_Toe1_02
L_Toe2_02 L_Toe2_01
L_Toe2_03 L_Toe2_02
L_Toe3_02 L_Toe3_01
L_Toe3_03 L_Toe3_02
planeLockWeightLeft planeAlignerLeft
R_Leg01 R_Hip
R_Leg02 R_Leg01
R_Leg03 R_Leg02
R_Foot R_Leg03
planeAlignerRight R_Foot
R_Toe1_01 R_Foot
R_Toe2_01 R_Foot
R_Toe3_01 R_Foot
planeLockWeightRight planeAlignerRight
R_Toe1_02 R_Toe1_01
R_Toe1_03 R_Toe1_02
R_Toe2_02 R_Toe2_01
R_Toe2_03 R_Toe2_02
R_Toe3_02 R_Toe3_01
R_Toe3_03 R_Toe3_02
Rear_Leg02 Rear_Leg01
Rear_Leg03 Rear_Leg02
Rear_Leg04 Rear_Leg03
Rear_Foot Rear_Leg04
planeAlignerCenter Rear_Foot
Rear_Toe1_01 Rear_Foot
Rear_Toe2_01 Rear_Foot
Rear_Toe3_01 Rear_Foot
planeLockWeightCenter planeAlignerCenter
Rear_Toe1_02 Rear_Toe1_01
Rear_Toe1_03 Rear_Toe1_02
Rear_Toe2_02 Rear_Toe2_01
Rear_Toe2_03 Rear_Toe2_02
Rear_Toe3_02 Rear_Toe3_01
Rear_Toe3_03 Rear_Toe3_02
Back_Bone Spine1
Head Spine1
Motor_Bone Back_Bone
Ping_Mechanism Back_Bone
BN_LookIK Head
bottomMouth Head
L_Mouth01 Head
L_mouthFront Head
mouthGun Head
R_Mouth01 Head
R_mouthFront Head
TopMouth Head
weapon_bone Head
[BasePosition]
#SegmentName Tx, Ty, Tz, Rx, Ry, Rz, BoneLength
Pinger_Root 0.000000 0.000000 0.000000 -90.000000 0.000000 0.000000 10.000000 
Pelvis 0.000000 0.000000 0.000000 0.000000 0.000000 0.000000 10.000000 
L_Hip 0.000000 0.000000 0.000000 0.000000 0.000000 0.000000 10.000000 
R_Hip 0.000000 0.000000 0.000000 0.000000 0.000000 0.000000 10.000000 
Rear_Leg01 0.000000 0.000000 0.000000 0.000000 0.000000 0.000000 10.000000 
Spine1 0.000000 0.000000 0.000000 0.000000 0.000000 0.000000 10.000000 
L_Leg01 0.000000 0.000000 0.000000 0.000000 0.000000 0.000000 10.000000 
L_Leg02 0.000000 0.000000 0.000000 0.000000 0.000000 0.000000 10.000000 
L_Leg03 0.000000 0.000000 0.000000 0.000000 0.000000 0.000000 10.000000 
L_Foot 0.000000 0.000000 0.000000 0.000000 0.000000 0.000000 10.000000 
L_Toe1_01 0.000000 0.000000 0.000000 0.000000 0.000000 0.000000 10.000000 
L_Toe2_01 0.000000 0.000000 0.000000 0.000000 0.000000 0.000000 10.000000 
L_Toe3_01 0.000000 0.000000 0.000000 0.000000 0.000000 0.000000 10.000000 
planeAlignerLeft 0.000000 0.000000 0.000000 0.000000 0.000000 0.000000 10.000000 
L_Toe1_02 0.000000 0.000000 0.000000 0.000000 0.000000 0.000000 10.000000 
L_Toe1_03 0.000000 0.000000 0.000000 0.000000 0.000000 0.000000 10.000000 
L_Toe2_02 0.000000 0.000000 0.000000 0.000000 0.000000 0.000000 10.000000 
L_Toe2_03 0.000000 0.000000 0.000000 0.000000 0.000000 0.000000 10.000000 
L_Toe3_02 0.000000 0.000000 0.000000 0.000000 0.000000 0.000000 10.000000 
L_Toe3_03 0.000000 0.000000 0.000000 0.000000 0.000000 0.000000 10.000000 
planeLockWeightLeft 0.000000 0.000000 0.000000 0.000000 0.000000 0.000000 10.000000 
R_Leg01 0.000000 0.000000 0.000000 0.000000 0.000000 0.000000 10.000000 
R_Leg02 0.000000 0.000000 0.000000 0.000000 0.000000 0.000000 10.000000 
R_Leg03 0.000000 0.000000 0.000000 0.000000 0.000000 0.000000 10.000000 
R_Foot 0.000000 0.000000 0.000000 0.000000 0.000000 0.000000 10.000000 
planeAlignerRight 0.000000 0.000000 0.000000 0.000000 0.000000 0.000000 10.000000 
R_Toe1_01 0.000000 0.000000 0.000000 0.000000 0.000000 0.000000 10.000000 
R_Toe2_01 0.000000 0.000000 0.000000 0.000000 0.000000 0.000000 10.000000 
R_Toe3_01 0.000000 0.000000 0.000000 0.000000 0.000000 0.000000 10.000000 
planeLockWeightRight 0.000000 0.000000 0.000000 0.000000 0.000000 0.000000 10.000000 
R_Toe1_02 0.000000 0.000000 0.000000 0.000000 0.000000 0.000000 10.000000 
R_Toe1_03 0.000000 0.000000 0.000000 0.000000 0.000000 0.000000 10.000000 
R_Toe2_02 0.000000 0.000000 0.000000 0.000000 0.000000 0.000000 10.000000 
R_Toe2_03 0.000000 0.000000 0.000000 0.000000 0.000000 0.000000 10.000000 
R_Toe3_02 0.000000 0.000000 0.000000 0.000000 0.000000 0.000000 10.000000 
R_Toe3_03 0.000000 0.000000 0.000000 0.000000 0.000000 0.000000 10.000000 
Rear_Leg02 0.000000 0.000000 0.000000 0.000000 0.000000 0.000000 10.000000 
Rear_Leg03 0.000000 0.000000 0.000000 0.000000 0.000000 0.000000 10.000000 
Rear_Leg04 0.000000 0.000000 0.000000 0.000000 0.000000 0.000000 10.000000 
Rear_Foot 0.000000 0.000000 0.000000 0.000000 0.000000 0.000000 10.000000 
planeAlignerCenter 0.000000 0.000000 0.000000 0.000000 0.000000 0.000000 10.000000 
Rear_Toe1_01 0.000000 0.000000 0.000000 0.000000 0.000000 0.000000 10.000000 
Rear_Toe2_01 0.000000 0.000000 0.000000 0.000000 0.000000 0.000000 10.000000 
Rear_Toe3_01 0.000000 0.000000 0.000000 0.000000 0.000000 0.000000 10.000000 
planeLockWeightCenter 0.000000 0.000000 0.000000 0.000000 0.000000 0.000000 10.000000 
Rear_Toe1_02 0.000000 0.000000 0.000000 0.000000 0.000000 0.000000 10.000000 
Rear_Toe1_03 0.000000 0.000000 0.000000 0.000000 0.000000 0.000000 10.000000 
Rear_Toe2_02 0.000000 0.000000 0.000000 0.000000 0.000000 0.000000 10.000000 
Rear_Toe2_03 0.000000 0.000000 0.000000 0.000000 0.000000 0.000000 10.000000 
Rear_Toe3_02 0.000000 0.000000 0.000000 0.000000 0.000000 0.000000 10.000000 
Rear_Toe3_03 0.000000 0.000000 0.000000 0.000000 0.000000 0.000000 10.000000 
Back_Bone 0.000000 0.000000 0.000000 0.000000 0.000000 0.000000 10.000000 
Head 0.000000 0.000000 0.000000 0.000000 0.000000 0.000000 10.000000 
Motor_Bone 0.000000 0.000000 0.000000 0.000000 0.000000 0.000000 10.000000 
Ping_Mechanism 0.000000 0.000000 0.000000 0.000000 0.000000 0.000000 10.000000 
BN_LookIK 0.000000 0.000000 0.000000 0.000000 0.000000 0.000000 10.000000 
bottomMouth 0.000000 0.000000 0.000000 0.000000 0.000000 0.000000 10.000000 
L_Mouth01 0.000000 0.000000 0.000000 0.000000 0.000000 0.000000 10.000000 
L_mouthFront 0.000000 0.000000 0.000000 0.000000 0.000000 0.000000 10.000000 
mouthGun 0.000000 0.000000 0.000000 0.000000 0.000000 0.000000 10.000000 
R_Mouth01 0.000000 0.000000 0.000000 0.000000 0.000000 0.000000 10.000000 
R_mouthFront 0.000000 0.000000 0.000000 0.000000 0.000000 0.000000 10.000000 
TopMouth 0.000000 0.000000 0.000000 0.000000 0.000000 0.000000 10.000000 
weapon_bone 0.000000 0.000000 0.000000 0.000000 0.000000 0.000000 10.000000 
#Beginning of Data. Separated by tabs
#Fr	Tx	Ty	Tz	Rx	Ry	Rz	SF
[Pinger_Root]
26 0.000000 0.000000 0.000000 -0.000075 -0.000000 -0.000020 0.000000
27 0.000000 0.000000 0.000000 -0.000075 -0.000000 -0.000020 0.000000
[Pelvis]
26 132.096466 1064.216187 4025.446777 -136.674988 -78.827576 129.313156 4165.840820
27 115.031265 1013.984436 4105.710449 -136.426849 -79.462723 129.044235 4230.632813
[L_Hip]
26 5.766392 125.831482 872.656799 160.158691 -45.484898 122.312202 881.701050
27 5.766392 125.831482 872.656799 160.158691 -45.484894 122.312202 881.701050
[R_Hip]
26 5.765438 125.836372 -872.654907 80.013885 70.380089 159.461533 881.699829
27 5.765438 125.836372 -872.654907 72.709488 68.113144 153.542419 881.699829
[Rear_Leg01]
26 -192.298416 -925.602966 -0.001907 165.582291 -1.245748 -141.877670 945.367432
27 -192.298416 -925.602966 -0.001907 166.101181 -1.028494 -143.467743 945.367432
[Spine1]
26 290.604584 5.007505 0.000477 8.834259 3.676851 22.965424 290.647736
27 290.604584 5.007505 0.000477 8.786925 3.796102 21.264721 290.647736
[L_Leg01]
26 761.932007 -0.002384 -0.069261 33.557129 -10.530029 -0.448298 761.932068
27 761.932007 -0.002384 -0.069261 30.690990 -11.976007 0.849281 761.932068
[L_Leg02]
26 1441.140503 -0.000954 -0.000715 6.899282 1.774804 -145.387497 1441.140503
27 1441.140503 -0.000954 -0.000715 6.266543 1.139135 -144.947662 1441.140503
[L_Leg03]
26 1686.963989 -0.000715 -0.000954 -0.095140 0.056106 136.502472 1686.963989
27 1686.963989 -0.000715 -0.000954 -0.083885 0.047881 132.782410 1686.963989
[L_Foot]
26 3041.570068 -30.715107 11.297464 -2.935961 17.194962 53.583599 3041.746094
27 3041.570068 -30.715107 11.297464 -1.706257 15.455214 54.604923 3041.746094
[L_Toe1_01]
26 -188.216690 -224.732346 -21.137953 93.587349 -6.367185 -171.503082 293.899567
27 -188.216690 -224.732346 -21.137953 93.781067 -6.969516 -172.806335 293.899567
[L_Toe2_01]
26 200.746536 -219.926590 148.838394 -91.110092 -26.928932 -49.814163 332.896027
27 200.746536 -219.926590 148.838394 -90.386925 -26.751308 -51.534187 332.896027
[L_Toe3_01]
26 188.832520 -219.859131 -191.078659 -99.678871 15.644146 -65.665924 347.140900
27 188.832520 -219.859131 -191.078659 -99.567314 14.086792 -66.364822 347.140900
[planeAlignerLeft]
26 0.812531 -811.448792 -0.314951 0.000000 -90.000000 -90.001900 811.449280
27 0.812531 -811.448792 -0.314951 0.000000 -90.000000 -90.001900 811.449280
[L_Toe1_02]
26 413.761139 0.000477 0.000000 0.001387 -25.632383 0.001387 413.761139
27 413.761139 0.000477 0.000000 0.001384 -26.012932 0.001384 413.761139
[L_Toe1_03]
26 464.317322 0.000358 -0.000089 0.003098 45.474499 0.003098 464.317322
27 464.317322 0.000358 -0.000089 0.003746 53.480888 0.003746 464.317322
[L_Toe2_02]
26 342.235809 -0.000477 0.000238 0.001183 -75.505531 0.001183 342.235809
27 342.235809 -0.000477 0.000238 0.001187 -73.034561 0.001187 342.235809
[L_Toe2_03]
26 420.210846 -0.000715 0.000000 -179.986603 85.651649 -179.983109 420.210846
27 420.210846 -0.000715 0.000000 -0.024435 87.096405 -0.020937 420.210846
[L_Toe3_02]
26 329.270111 0.000954 0.000000 0.001176 -82.094109 0.001176 329.270111
27 329.270111 0.000954 0.000000 0.001177 -81.084206 0.001177 329.270111
[L_Toe3_03]
26 439.137451 -0.001907 0.000954 -179.998184 71.605255 -179.994644 439.137451
27 439.137451 -0.001907 0.000954 -179.996979 76.216393 -179.993454 439.137451
[planeLockWeightLeft]
26 -0.000954 0.000238 -0.000305 -0.011826 -0.004376 0.005620 0.001029
27 -0.000954 0.000238 -0.000305 -0.011826 -0.004376 0.005620 0.001029
[R_Leg01]
26 761.455627 -0.001907 -0.000358 96.903503 -10.992304 60.949467 761.455688
27 761.455627 -0.001907 -0.000358 99.887901 -12.278581 57.981689 761.455688
[R_Leg02]
26 1441.140625 0.000000 -0.000238 -1.338887 -0.172063 -96.423347 1441.140625
27 1441.140625 0.000000 -0.000238 -1.217242 -0.121360 -96.742874 1441.140625
[R_Leg03]
26 1686.963989 0.000954 0.001431 0.085996 -0.045593 133.488525 1686.963989
27 1686.963989 0.000954 0.001431 0.080165 -0.041749 131.689850 1686.963989
[R_Foot]
26 3041.560059 -30.531288 -11.204481 -4.218807 -24.539307 43.547035 3041.734131
27 3041.560059 -30.531288 -11.204481 -4.053728 -24.549711 44.179573 3041.734131
[planeAlignerRight]
26 -0.635147 -812.270569 -0.364304 0.000000 -89.960434 -90.005180 812.270874
27 -0.635147 -812.270569 -0.364304 0.000000 -89.960434 -90.005180 812.270874
[R_Toe1_01]
26 -188.383347 -224.864899 21.052242 77.323647 -4.362893 -175.381836 294.101532
27 -188.383347 -224.864899 21.052242 77.323654 -4.362612 -175.382187 294.101532
[R_Toe2_01]
26 200.637817 -220.002121 -148.787384 -84.724457 32.131763 -46.480873 332.857574
27 200.637817 -220.002121 -148.787384 -84.724457 32.131763 -46.480873 332.857574
[R_Toe3_01]
26 188.606735 -220.092957 191.126343 -71.122200 -17.511469 -68.424393 347.192566
27 188.606735 -220.092957 191.126343 -71.120926 -17.515095 -68.427040 347.192566
[planeLockWeightRight]
26 -0.000477 0.000000 0.000000 -0.011823 -0.004379 -0.000027 0.000477
27 -0.000477 0.000000 0.000000 -0.011823 -0.004379 -0.000027 0.000477
[R_Toe1_02]
26 413.762085 0.000477 -0.000119 0.001385 -25.801285 0.001385 413.762085
27 413.762085 0.000477 -0.000119 0.001385 -25.797106 0.001385 413.762085
[R_Toe1_03]
26 464.317810 0.000000 0.001088 0.004309 58.392216 0.004309 464.317810
27 464.317810 0.000000 0.001088 0.004309 58.392216 0.004309 464.317810
[R_Toe2_02]
26 342.234741 -0.000954 0.000238 -0.002336 -78.155830 -0.002336 342.234741
27 342.234741 -0.000954 0.000238 -0.002336 -78.155441 -0.002336 342.234741
[R_Toe2_03]
26 420.210846 0.000715 -0.000268 -179.993973 74.509308 -179.997513 420.210846
27 420.210846 0.000715 -0.000268 -179.993973 74.509644 -179.997513 420.210846
[R_Toe3_02]
26 329.270355 -0.000477 -0.000954 0.001177 -80.759201 0.001177 329.270355
27 329.270355 -0.000477 -0.000954 0.001177 -80.759201 0.001177 329.270355
[R_Toe3_03]
26 439.137939 0.000238 0.001431 -179.996521 77.414536 -179.992996 439.137939
27 439.137939 0.000238 0.001431 -179.996521 77.414879 -179.992996 439.137939
[Rear_Leg02]
26 1162.777710 -0.029802 0.005960 -1.014084 2.630149 -111.867554 1162.777710
27 1162.777710 -0.029802 0.005960 -0.439662 1.258464 -112.225174 1162.777710
[Rear_Leg03]
26 607.192505 -0.013351 -0.073195 0.010482 -0.005127 68.484871 607.192505
27 607.192505 -0.013351 -0.073195 0.010492 -0.005106 68.255722 607.192505
[Rear_Leg04]
26 995.874512 -0.020504 -0.011921 -0.040165 -0.018864 67.045563 995.874573
27 995.874512 -0.020504 -0.011921 -0.040061 -0.019086 66.413895 995.874573
[Rear_Foot]
26 3096.176270 -0.067472 -0.041425 124.947578 87.200890 -44.930595 3096.176270
27 3096.176270 -0.067472 -0.041425 152.864853 87.655235 -17.761986 3096.176270
[planeAlignerCenter]
26 0.350077 0.966311 -838.790894 0.000009 0.000003 -179.999985 838.791565
27 0.350077 0.966311 -838.790894 0.000009 0.000003 -179.999985 838.791565
[Rear_Toe1_01]
26 0.653352 83.966492 -371.173737 0.288091 41.914127 90.413170 380.553192
27 0.653352 83.966492 -371.173737 0.288091 41.914127 90.413170 380.553192
[Rear_Toe2_01]
26 178.200760 -294.826019 -362.060547 -7.196267 34.406261 -66.271294 499.765686
27 178.200760 -294.826019 -362.060547 -7.196267 34.406261 -66.271294 499.765686
[Rear_Toe3_01]
26 -153.359680 -308.780914 -362.060852 3.289418 33.518005 -112.540970 499.952881
27 -153.359680 -308.780914 -362.060852 3.289418 33.518005 -112.540970 499.952881
[planeLockWeightCenter]
26 -0.000062 0.000238 0.000000 -0.011814 -0.004373 -0.000015 0.000246
27 -0.000062 0.000238 0.000000 -0.011814 -0.004373 -0.000015 0.000246
[Rear_Toe1_02]
26 379.707825 0.194073 0.000477 -0.000242 -31.680603 0.006934 379.707855
27 379.707825 0.194073 0.000477 -0.000242 -31.680283 0.006934 379.707855
[Rear_Toe1_03]
26 500.129700 0.165701 0.000119 -0.000103 51.906612 0.007296 500.129761
27 500.129700 0.165701 0.000119 -0.000103 51.906246 0.007295 500.129761
[Rear_Toe2_02]
26 340.494507 0.000238 -0.000954 0.001192 -69.854523 0.001192 340.494507
27 340.494507 0.000238 -0.000954 0.001192 -69.854523 0.001192 340.494507
[Rear_Toe2_03]
26 433.103577 0.000000 0.000238 0.006696 69.810303 0.006696 433.103546
27 433.103577 0.000000 0.000238 0.006696 69.810326 0.006696 433.103546
[Rear_Toe3_02]
26 340.494141 -0.000358 -0.000477 0.008288 -67.274704 -0.009460 340.494171
27 340.494141 -0.000358 -0.000477 0.008288 -67.274704 -0.009460 340.494171
[Rear_Toe3_03]
26 433.103577 0.001431 -0.000238 -0.000972 65.958984 -0.004547 433.103546
27 433.103577 0.001431 -0.000238 -0.000972 65.958961 -0.004547 433.103546
[Back_Bone]
26 1312.175781 -701.934692 0.000954 -2.728710 7.724200 -95.176208 1488.125488
27 1312.175781 -701.934692 0.000954 -2.590915 7.492747 -94.585564 1488.125488
[Head]
26 1406.159424 809.709290 0.001431 -0.548128 -0.200251 29.845201 1622.625488
27 1406.159424 809.709290 0.001431 -0.558963 0.101238 27.185051 1622.625488
[Motor_Bone]
26 1158.364380 -417.834747 0.000477 0.292086 12.468907 -119.926620 1231.419434
27 1158.364380 -417.834747 0.000477 -0.098903 12.982619 -117.716362 1231.419434
[Ping_Mechanism]
26 1260.820679 -445.051239 -30.596767 0.000103 -0.000053 82.120995 1337.413696
27 1258.575928 -443.576050 -28.589478 0.000103 -0.000053 82.120995 1334.762329
[BN_LookIK]
26 193.241119 1380.371704 -0.002861 0.000000 89.965736 -31.038179 1393.832153
27 193.241119 1380.371704 -0.002861 0.000000 89.965736 -31.038179 1393.832153
[bottomMouth]
26 -435.092926 615.759399 -0.000954 -0.000022 0.000016 73.527184 753.966492
27 -435.092926 615.759399 -0.000954 -0.000022 0.000016 73.527184 753.966492
[L_Mouth01]
26 554.440979 7.658243 838.222046 150.204178 23.759130 109.605339 1005.027161
27 554.440979 7.658243 838.222046 150.204178 23.759130 109.605339 1005.027161
[L_mouthFront]
26 551.629089 934.514771 339.150421 0.000081 2.804060 79.119301 1136.941284
27 551.629089 934.514771 339.150421 0.000081 2.804060 79.119301 1136.941284
[mouthGun]
26 55.332661 1627.420898 0.000000 0.000023 0.000009 -11.038128 1628.361328
27 55.332661 1627.420898 0.000000 0.000023 0.000009 -11.038128 1628.361328
[R_Mouth01]
26 554.442383 7.659197 -838.223938 29.795891 -23.759109 109.605331 1005.029541
27 554.442383 7.659197 -838.223938 29.795891 -23.759109 109.605331 1005.029541
[R_mouthFront]
26 551.629089 934.514282 -339.151367 0.000029 -2.803930 79.119133 1136.941162
27 551.629089 934.514282 -339.151367 0.000029 -2.803930 79.119133 1136.941162
[TopMouth]
26 461.269867 -56.106091 -0.008583 -0.000059 -0.000268 92.025169 464.669525
27 461.269867 -56.106091 -0.008583 -0.000059 -0.000268 92.025169 464.669525
[weapon_bone]
26 -987.239868 1448.372803 0.001431 0.000000 89.965736 -31.038221 1752.833740
27 -987.239868 1448.372803 0.001431 0.000000 89.965736 -31.038221 1752.833740
